<?xml version="1.0" encoding="utf-8"?>
<!DOCTYPE svg PUBLIC "-//W3C//DTD SVG 20010904//EN" "http://www.w3.org/TR/2001/REC-SVG-20010904/DTD/svg10.dtd">
<svg version="1.0" xmlns="http://www.w3.org/2000/svg" width="505px" height="601px" viewBox="0 0 505 601" preserveAspectRatio="xMidYMid meet">
 <g fill="#104691">
  <path d="M73.5 569.6 c-11.7 -2.7 -23.1 -10.6 -29.4 -20.5 -6.5 -10.1 -6.1 2.5 -6.1 -208.2 l0 -191.4 61 -61 61 -61 136.8 0 c129.3 0 137 0.1 142.6 1.8 8.7 2.7 15.9 7.2 21.4 13.3 4.9 5.4 8.9 12.1 9.6 16 0.3 1.2 0.9 3.9 1.5 6 0.8 2.8 1 72.2 0.8 236.4 -0.2 232.2 -0.2 232.5 -2.3 238.1 -3.7 10 -7.9 16.1 -15.4 21.9 -5.5 4.4 -11.5 7.2 -18 8.6 -6.2 1.3 -357.8 1.3 -363.5 0z m364.5 -12.7 c2.7 -0.6 5 -1.5 5 -2 0 -0.5 0.6 -0.9 1.4 -0.9 2.1 0 10.5 -9 13.2 -14.3 l2.4 -4.7 0 -235.5 0 -235.5 -2.6 -5.7 c-3 -6.9 -8.4 -12.2 -15.9 -15.7 l-5.4 -2.6 -133.2 0 c-73.2 0 -133.5 0.3 -134 0.6 -0.5 0.3 -0.9 17.6 -0.9 39.3 0 32.4 -0.3 39.6 -1.6 44.1 -5.1 17.1 -13.3 25.7 -30.6 31.9 -5.3 1.9 -8.1 2 -45.4 2.1 -21.9 0 -40.2 0.4 -40.6 0.8 -0.5 0.5 -0.7 84.7 -0.6 187.3 0.3 183.7 0.3 186.5 2.3 191.4 2.5 6.2 13.5 17.6 18.5 19.2 4.9 1.5 360.8 1.7 368 0.2z m-310.5 -411.2 c10.1 -2.4 12 -3.3 17.1 -8 4.8 -4.4 9 -10 8.2 -11 -0.2 -0.2 0.4 -1.2 1.2 -2.2 1.3 -1.5 1.6 -7.4 1.9 -36 0.2 -25 0 -34.8 -0.9 -36.4 -1.1 -2.1 -3.8 0.4 -48.6 45.5 -26.1 26.3 -47.4 48.1 -47.4 48.6 0 1 64.2 0.5 68.5 -0.5z"/>
  <path d="M355.8 471.5 c-0.2 -0.2 -2.6 -0.7 -5.3 -1 -6.8 -0.8 -18.1 -5.2 -21.3 -8.2 -0.7 -0.7 -1.7 -1.3 -2.1 -1.3 -0.5 0 -4.1 -3.3 -8.2 -7.3 -8.2 -8.1 -10.1 -11.5 -21 -36.4 -4.3 -9.9 -5 -11.6 -12.4 -27.8 -1.2 -2.7 -3.2 -7.2 -4.4 -9.9 -1.2 -2.7 -3.1 -7.1 -4.2 -9.9 -1.1 -2.8 -3.2 -7.6 -4.6 -10.6 -1.4 -3.1 -3.4 -7.4 -4.3 -9.6 -1 -2.2 -2.8 -6.2 -4 -9 -2.5 -5.6 -6.6 -14.9 -7.9 -18 -0.4 -1.1 -1.8 -4 -3 -6.3 -1.1 -2.4 -2.1 -5 -2.1 -5.7 0 -0.7 -0.6 -1.8 -1.4 -2.4 -0.8 -0.7 -1.7 -2.4 -2.1 -3.8 -0.3 -1.5 -2 -5.5 -3.6 -9.1 -2.9 -6.2 -3.1 -6.3 -5 -4.6 -1 0.9 -1.9 2.1 -1.9 2.5 0 0.5 -2.5 5.2 -5.7 10.6 -3.1 5.4 -7 12.3 -8.6 15.3 -1.7 3 -4.1 7.2 -5.4 9.2 -1.3 2.1 -2.3 4 -2.3 4.3 0 0.3 -1.1 2.2 -2.3 4.3 -3.8 6 -12.9 22 -19.8 35 -0.9 1.8 -2.2 3.8 -2.7 4.5 -0.5 0.7 -2.4 3.9 -4.1 7.1 -1.7 3.3 -3.5 6.4 -4 7 -0.5 0.6 -2.4 4 -4.2 7.6 -1.9 3.6 -3.7 6.7 -4 7 -0.4 0.3 -2.4 3.9 -4.5 8 -2.1 4.1 -4.1 7.7 -4.5 8 -0.3 0.3 -1.9 2.8 -3.3 5.5 -1.5 2.8 -3.7 6.6 -4.8 8.5 -1.1 1.9 -3.5 6.3 -5.3 9.8 -1.8 3.5 -3.8 6.9 -4.4 7.6 -0.7 0.8 -2.6 4.2 -4.2 7.7 -5 10.3 -10.1 13.3 -15.7 9.3 -1.8 -1.2 -2.2 -2.4 -2 -5.5 0.1 -2.1 0.4 -3.9 0.8 -3.9 0.3 0 1.3 -1.7 2.3 -3.7 2 -4.2 4.9 -9.5 5.7 -10.3 0.8 -0.8 2.8 -4.3 4.7 -8 0.9 -1.9 2.6 -5.1 3.8 -7 2.3 -3.6 10 -17.8 11.9 -21.7 0.6 -1.3 1.4 -2.3 1.9 -2.3 0.4 0 0.7 -0.5 0.7 -1 0 -0.6 1.6 -3.6 3.5 -6.6 1.9 -3 3.5 -5.6 3.5 -5.9 0 -0.2 2.9 -5.4 6.5 -11.6 3.6 -6.1 6.5 -11.4 6.5 -11.7 0 -0.2 4.1 -7.7 9.1 -16.6 5.1 -8.8 10.5 -18.6 12.2 -21.6 1.7 -3 3.3 -5.7 3.6 -6 0.4 -0.3 1.9 -3 3.5 -6 1.6 -3 3.9 -7.1 4.9 -9 1.1 -1.9 3.8 -6.6 6 -10.5 2.2 -3.8 5.2 -9.2 6.8 -12 1.6 -2.7 3.3 -6 3.8 -7.2 0.6 -1.2 2.2 -4 3.6 -6.2 1.8 -3 2.3 -4.6 1.6 -5.8 -0.9 -1.7 -2.5 -5.4 -7.1 -15.8 -4.5 -10.1 -14.1 -29.2 -17.4 -34.5 -6.4 -10.3 -18.3 -20.3 -28.3 -23.7 -2.7 -0.9 -5.5 -1.8 -6.3 -2.1 -0.8 -0.3 -3.1 -0.7 -5 -0.9 -15.7 -1.5 -16.8 -2 -17.2 -7.7 -0.2 -3 0.3 -4.3 2.2 -5.8 2.2 -1.8 3.4 -1.9 9 -1.4 10.7 1 13.5 1.5 17.9 3.1 2.3 0.8 4.5 1.4 4.9 1.5 4.1 0.3 15.9 7.5 21.2 13 10.5 10.8 15.8 18.4 23.2 33.1 3.2 6.4 5.8 11.9 5.8 12.2 0 0.3 2 4.9 4.5 10.1 2.5 5.3 4.5 9.8 4.5 10.1 0 0.2 1.5 3.7 3.3 7.7 1.9 4 4 8.9 4.7 10.8 0.8 1.9 1.6 3.7 1.9 4 0.4 0.3 1.2 2.3 2 4.5 0.8 2.2 3.8 9 6.7 15.2 3 6.2 5.4 11.5 5.4 11.9 0 0.4 1.1 3 2.4 5.8 3 6.4 8.3 18.2 18.1 40.6 4.2 9.6 8.5 19.3 9.5 21.5 1 2.2 2.8 6.3 4 9 3.9 8.7 4.8 10.9 7.1 16 1.3 2.8 2.4 5.2 2.4 5.5 0.1 0.3 0.6 1.6 1.2 3 6.5 15.4 11.5 23.5 18.2 29.8 4.5 4.2 13.6 9.2 17.6 9.6 1.2 0.1 2.6 0.5 3.2 0.9 1.5 1 14.1 1.2 17.8 0.3 8.7 -2.1 10.1 -1.9 12.4 0.9 1.3 1.8 2 3.7 1.7 5.4 -0.2 1.4 -0.5 3 -0.5 3.4 -0.1 1.2 -6 3.4 -11.1 4.2 -5.8 0.9 -15.7 1.5 -16.2 1z"/>
  <path d="M385.1 386.5 c-2.9 -3.3 -3.6 -3.6 -6.7 -3.1 -2 0.4 -4.1 1.7 -5 3.1 -3.6 5.4 -12 1.4 -11.1 -5.2 0.7 -4.8 -2.4 -8.4 -6.6 -7.9 -4.1 0.5 -7.3 -0.7 -8.7 -3.3 -1.2 -2.4 -0.3 -7.1 1.5 -7.1 2.1 0 4.5 -3.5 4.5 -6.5 0 -1.9 -1.1 -4 -3.1 -6.1 -2.9 -3 -3 -3.4 -2 -6.7 1.3 -3.8 3.4 -4.8 10 -4.5 4.1 0.1 5.5 -1.9 5.6 -8.2 0 -4.1 0.3 -4.7 3.4 -6.2 4 -2 5 -1.7 7.6 2.2 2.7 4 6.8 4 11.5 0 2.6 -2.3 4.1 -2.9 6 -2.5 3.5 0.9 4.7 2.9 4.8 8.2 0.2 6 1.9 7.8 7.3 7.4 7.8 -0.4 10.7 6.3 5 11.8 -4.2 4.1 -4.3 6.9 -0.3 10.7 3.6 3.5 4 6.2 1.3 9.5 -1.5 1.8 -2.7 2.2 -6.3 2.1 -5.1 -0.3 -8.1 2 -7.8 6 0.6 6.6 -0.4 8.5 -4.6 9.4 -2.6 0.5 -3.5 0.1 -6.3 -3.1z m-0.6 -20.7 c1.4 -0.6 3.3 -2.7 4.2 -4.5 1.4 -2.9 1.4 -3.8 0.2 -7 -0.9 -2.3 -2.8 -4.5 -4.7 -5.6 -3.1 -1.8 -3.5 -1.9 -7.6 -0.3 -4.5 1.7 -6.2 4.2 -6 8.6 0.2 7.7 6.9 12 13.9 8.8z"/>
 </g>
</svg>